<svg xmlns="http://www.w3.org/2000/svg" viewBox="0 0 170.08 170.08"><defs><style>.cls-1{fill:#04246e;}.cls-2{fill:#fff;}</style></defs><title>square-mark-white</title><g id="Layer_2" data-name="Layer 2"><g id="Layer_1-2" data-name="Layer 1"><rect class="cls-1" width="170.08" height="170.08"/><path class="cls-2" d="M127.34,58c-8.4,0-14.41,7.4-20.6,15.65-3.84-17.51-8.11-35-21.7-35s-17.86,17.5-21.71,35C57.15,65.37,51.13,58,42.74,58c-5.35,0-14.39,3.63-14.39,17.25L28.41,100c0,13.36,7.14,16.64,11.42,17.76h0c7.39,1.91,25.17,3.69,45.18,3.69s37.8-1.78,45.18-3.69h0c4.28-1.12,11.42-4.4,11.42-17.76l.06-24.79c0-13.62-9-17.25-14.39-17.25M85,46.33c8.15,0,11.24,16.06,15.57,35.33C95.86,87.5,90.83,92.21,85,92.21S74.21,87.5,69.47,81.66c4-18,7.17-35.33,15.57-35.33M36.13,100l-.06-24.79c0-8.6,4.67-9.53,6.67-9.53,5.92,0,12.28,9.88,18.36,17.83-4.29,18-8.83,29-19.56,26.72-2.78-.77-5.41-2.53-5.41-10.23m21,12.53c4.75-5.16,7.78-13.21,10.08-21.73,5,5.19,10.69,9.13,17.8,9.13S97.86,96,102.83,90.81c2.31,8.52,5.33,16.57,10.07,21.73-8.29.75-18.28,1.21-27.86,1.21s-19.59-.46-27.88-1.21M134,100c0,7.7-2.63,9.46-5.42,10.23-10.73,2.27-15.26-8.72-19.56-26.72,6.08-7.94,12.45-17.83,18.37-17.83,2,0,6.67.93,6.67,9.53Z"/></g></g></svg>